<svg width="335" height="70" viewBox="0 0 335 70" fill="none" xmlns="http://www.w3.org/2000/svg">
<g clip-path="url(#clip0_0_1)">
<path d="M34.6 18.5C36.8644 18.5 38.7 16.6644 38.7 14.4C38.7 12.1356 36.8644 10.3 34.6 10.3C32.3356 10.3 30.5 12.1356 30.5 14.4C30.5 16.6644 32.3356 18.5 34.6 18.5Z" fill="#B5D3E4"/>
<path d="M29 9.2C31.2644 9.2 33.1 7.36437 33.1 5.1C33.1 2.83563 31.2644 1 29 1C26.7356 1 24.9 2.83563 24.9 5.1C24.9 7.36437 26.7356 9.2 29 9.2Z" fill="#B5D3E4"/>
<path d="M40.1 9.2C42.3644 9.2 44.2 7.36437 44.2 5.1C44.2 2.83563 42.3644 1 40.1 1C37.8356 1 36 2.83563 36 5.1C36 7.36437 37.8356 9.2 40.1 9.2Z" fill="#B5D3E4"/>
<path d="M19.6 24.7C21.8644 24.7 23.7 22.8644 23.7 20.6C23.7 18.3356 21.8644 16.5 19.6 16.5C17.3356 16.5 15.5 18.3356 15.5 20.6C15.5 22.8644 17.3356 24.7 19.6 24.7Z" fill="#D3E5EF"/>
<path d="M9.1 22.1C11.3644 22.1 13.2 20.2644 13.2 18C13.2 15.7356 11.3644 13.9 9.1 13.9C6.83563 13.9 5 15.7356 5 18C5 20.2644 6.83563 22.1 9.1 22.1Z" fill="#D3E5EF"/>
<path d="M17 14.2C19.2644 14.2 21.1 12.3644 21.1 10.1C21.1 7.83563 19.2644 6 17 6C14.7356 6 12.9 7.83563 12.9 10.1C12.9 12.3644 14.7356 14.2 17 14.2Z" fill="#D3E5EF"/>
<path d="M13.4 39.7C15.6644 39.7 17.5 37.8644 17.5 35.6C17.5 33.3356 15.6644 31.5 13.4 31.5C11.1356 31.5 9.3 33.3356 9.3 35.6C9.3 37.8644 11.1356 39.7 13.4 39.7Z" fill="#CBE0EC"/>
<path d="M4.1 45.2C6.36437 45.2 8.2 43.3644 8.2 41.1C8.2 38.8356 6.36437 37 4.1 37C1.83563 37 0 38.8356 0 41.1C0 43.3644 1.83563 45.2 4.1 45.2Z" fill="#CBE0EC"/>
<path d="M4.1 34.1C6.36437 34.1 8.2 32.2644 8.2 30C8.2 27.7356 6.36437 25.9 4.1 25.9C1.83563 25.9 0 27.7356 0 30C0 32.2644 1.83563 34.1 4.1 34.1Z" fill="#CBE0EC"/>
<path d="M19.6 54.6C21.8644 54.6 23.7 52.7644 23.7 50.5C23.7 48.2356 21.8644 46.4 19.6 46.4C17.3356 46.4 15.5 48.2356 15.5 50.5C15.5 52.7644 17.3356 54.6 19.6 54.6Z" fill="#BBD6E5"/>
<path d="M17 65.1C19.2644 65.1 21.1 63.2643 21.1 61C21.1 58.7356 19.2644 56.9 17 56.9C14.7356 56.9 12.9 58.7356 12.9 61C12.9 63.2643 14.7356 65.1 17 65.1Z" fill="#BBD6E5"/>
<path d="M9.1 57.3C11.3644 57.3 13.2 55.4643 13.2 53.2C13.2 50.9356 11.3644 49.1 9.1 49.1C6.83563 49.1 5 50.9356 5 53.2C5 55.4643 6.83563 57.3 9.1 57.3Z" fill="#BBD6E5"/>
<path d="M34.6 60.8C36.8644 60.8 38.7 58.9644 38.7 56.7C38.7 54.4356 36.8644 52.6 34.6 52.6C32.3356 52.6 30.5 54.4356 30.5 56.7C30.5 58.9644 32.3356 60.8 34.6 60.8Z" fill="#ADCFE3"/>
<path d="M40.1 70.1C42.3644 70.1 44.2 68.2644 44.2 66C44.2 63.7357 42.3644 61.9 40.1 61.9C37.8356 61.9 36 63.7357 36 66C36 68.2644 37.8356 70.1 40.1 70.1Z" fill="#ADCFE3"/>
<path d="M29 70.1C31.2644 70.1 33.1 68.2644 33.1 66C33.1 63.7357 31.2644 61.9 29 61.9C26.7356 61.9 24.9 63.7357 24.9 66C24.9 68.2644 26.7356 70.1 29 70.1Z" fill="#ADCFE3"/>
<path d="M49.5 54.6C51.7644 54.6 53.6 52.7644 53.6 50.5C53.6 48.2356 51.7644 46.4 49.5 46.4C47.2356 46.4 45.4 48.2356 45.4 50.5C45.4 52.7644 47.2356 54.6 49.5 54.6Z" fill="#9DC6DD"/>
<path d="M60 57.3C62.2644 57.3 64.1 55.4643 64.1 53.2C64.1 50.9356 62.2644 49.1 60 49.1C57.7356 49.1 55.9 50.9356 55.9 53.2C55.9 55.4643 57.7356 57.3 60 57.3Z" fill="#9DC6DD"/>
<path d="M52.2 65.1C54.4644 65.1 56.3 63.2643 56.3 61C56.3 58.7356 54.4644 56.9 52.2 56.9C49.9356 56.9 48.1 58.7356 48.1 61C48.1 63.2643 49.9356 65.1 52.2 65.1Z" fill="#9DC6DD"/>
<path d="M55.7 39.7C57.9644 39.7 59.8 37.8644 59.8 35.6C59.8 33.3356 57.9644 31.5 55.7 31.5C53.4356 31.5 51.6 33.3356 51.6 35.6C51.6 37.8644 53.4356 39.7 55.7 39.7Z" fill="#8FBDD7"/>
<path d="M65 34.1C67.2644 34.1 69.1 32.2644 69.1 30C69.1 27.7356 67.2644 25.9 65 25.9C62.7356 25.9 60.9 27.7356 60.9 30C60.9 32.2644 62.7356 34.1 65 34.1Z" fill="#8FBDD7"/>
<path d="M65 45.2C67.2644 45.2 69.1 43.3644 69.1 41.1C69.1 38.8356 67.2644 37 65 37C62.7356 37 60.9 38.8356 60.9 41.1C60.9 43.3644 62.7356 45.2 65 45.2Z" fill="#8FBDD7"/>
<path d="M49.5 24.7C51.7644 24.7 53.6 22.8644 53.6 20.6C53.6 18.3356 51.7644 16.5 49.5 16.5C47.2356 16.5 45.4 18.3356 45.4 20.6C45.4 22.8644 47.2356 24.7 49.5 24.7Z" fill="#81B4D3"/>
<path d="M52.2 14.2C54.4644 14.2 56.3 12.3644 56.3 10.1C56.3 7.83563 54.4644 6 52.2 6C49.9356 6 48.1 7.83563 48.1 10.1C48.1 12.3644 49.9356 14.2 52.2 14.2Z" fill="#81B4D3"/>
<path d="M60 22.1C62.2644 22.1 64.1 20.2644 64.1 18C64.1 15.7356 62.2644 13.9 60 13.9C57.7356 13.9 55.9 15.7356 55.9 18C55.9 20.2644 57.7356 22.1 60 22.1Z" fill="#81B4D3"/>
<path d="M34.6 46.5C40.6199 46.5 45.5 41.6199 45.5 35.6C45.5 29.5801 40.6199 24.7 34.6 24.7C28.5801 24.7 23.7 29.5801 23.7 35.6C23.7 41.6199 28.5801 46.5 34.6 46.5Z" fill="#E64011"/>
<path d="M103 55C101 54.5 99.2 53.6 97.5 52.5C95.8 51.4 94.4 50 93.1 48.5C91.9 46.9 90.9 45.1 90.2 42.9C89.5 40.7 89.2 38.4 89.2 35.8C89.2 33.5 89.5 31.4 90 29.3C90.6 27.3 91.4 25.4 92.5 23.7C93.6 22 95 20.5 96.6 19.3C98.2 18.1 100.1 17.1 102.2 16.4C104.4 15.7 106.7 15.4 109.2 15.4C112.1 15.4 114.9 16 117.6 17.3C120.3 18.6 122.7 20.5 124.8 23L119.8 27.2C118.5 25.5 116.9 24.2 115 23.2C113.1 22.2 111.2 21.7 109.1 21.7C106.6 21.7 104.3 22.3 102.3 23.4C100.3 24.6 98.8 26.2 97.7 28.3C96.6 30.4 96.1 32.9 96.1 35.7C96.1 38.4 96.7 40.8 97.8 42.8C98.9 44.9 100.5 46.5 102.4 47.6C104.4 48.7 106.6 49.3 109.1 49.3C111.2 49.3 113.2 48.8 115.1 47.8C116.9 46.8 118.5 45.5 119.8 43.9L124.8 48.1C123 50.4 120.7 52.2 118.1 53.6C115.5 55 112.5 55.6 109.2 55.6C107.1 55.8 105 55.5 103 55Z" fill="#EFF5F8"/>
<path d="M157 28.1V55.4H151V51.7C148.9 54.4 146 55.8 142.3 55.8C140.8 55.8 139.4 55.6 138 55.2C136.6 54.8 135.4 54.2 134.3 53.3C133.2 52.5 132.3 51.5 131.5 50.4C130.7 49.3 130.1 48 129.7 46.5C129.3 45 129.1 43.5 129.1 41.8C129.1 39.8 129.4 37.9 130.1 36.1C130.8 34.3 131.7 32.8 132.9 31.6C134.1 30.4 135.5 29.4 137.1 28.7C138.7 28 140.5 27.6 142.3 27.6C145.8 27.6 148.7 28.8 150.7 31.3H150.8V28H157V28.1ZM148.8 47.9C150.3 46.4 151.1 44.4 151.1 42C151.1 39.6 150.4 37.6 148.9 35.9C147.4 34.3 145.6 33.5 143.4 33.5C142.3 33.5 141.3 33.7 140.3 34.1C139.3 34.5 138.5 35.1 137.8 35.8C137.1 36.5 136.5 37.4 136.1 38.5C135.7 39.6 135.5 40.8 135.5 42C135.5 44.4 136.2 46.4 137.7 47.9C139.2 49.4 141 50.2 143.4 50.2C145.4 50.2 147.3 49.4 148.8 47.9Z" fill="#EFF5F8"/>
<path d="M162.6 51.9L165.8 47.2C166.9 48.3 168.1 49.1 169.3 49.6C170.5 50.1 172 50.4 173.6 50.4C174.8 50.4 175.7 50.2 176.4 49.7C177.1 49.2 177.4 48.6 177.4 47.8C177.4 47.1 177 46.6 176.2 46.2C175.4 45.8 174 45.2 172 44.5C171.2 44.2 170.5 44 169.8 43.7C169.1 43.4 168.5 43.1 167.8 42.7C167.1 42.3 166.6 41.9 166.1 41.5C165.6 41 165.2 40.5 164.8 40C164.4 39.4 164.1 38.8 163.9 38C163.7 37.3 163.6 36.5 163.6 35.6C163.6 33.4 164.5 31.5 166.3 30.1C168.1 28.6 170.4 27.9 173.2 27.9C176.8 27.9 180 29 182.9 31.3L179.8 36.2C179.1 35.5 178.3 35 177.5 34.5C176.7 34.1 175.9 33.7 175.2 33.5C174.5 33.3 173.7 33.2 173 33.2C172.3 33.2 171.6 33.4 171 33.8C170.4 34.2 170.1 34.8 170.1 35.5C170.1 35.9 170.3 36.4 170.7 36.7C171.1 37.1 171.6 37.4 172.1 37.8C172.7 38.1 173.5 38.5 174.4 38.8C177.3 39.9 179.1 40.7 179.8 41.1C181.6 42.1 182.8 43.2 183.3 44.6C183.6 45.5 183.8 46.4 183.8 47.6C183.8 48.8 183.6 49.8 183.2 50.8C182.8 51.8 182.2 52.7 181.3 53.4C180.5 54.2 179.4 54.7 178.1 55.2C176.8 55.6 175.3 55.8 173.6 55.8C169.3 55.9 165.7 54.5 162.6 51.9Z" fill="#EFF5F8"/>
<path d="M214.5 43.9H194.6C195 45.8 195.9 47.3 197.3 48.5C198.7 49.6 200.4 50.2 202.4 50.2C205.2 50.2 207.5 49.1 209.2 47L213.6 50.7C212.4 52.3 210.8 53.5 208.8 54.5C206.9 55.4 204.6 55.9 202.1 55.9C199.5 55.9 197.1 55.3 195 54.2C192.9 53.1 191.2 51.4 190 49.2C188.8 47 188.2 44.6 188.2 41.8C188.2 39.7 188.5 37.8 189.2 36.1C189.9 34.4 190.8 32.9 192 31.6C193.2 30.4 194.6 29.4 196.2 28.7C197.8 28 199.6 27.7 201.5 27.7C204.1 27.7 206.5 28.3 208.5 29.5C210.5 30.7 212.1 32.3 213.1 34.4C214.2 36.5 214.7 38.8 214.7 41.5C214.7 42.5 214.7 43.3 214.5 43.9ZM197.3 34.8C196 35.8 195.2 37.1 194.8 38.9H208.5C208.2 37.8 207.8 36.8 207.2 36C206.6 35.2 205.9 34.6 205 34.1C204.1 33.6 203 33.4 201.9 33.4C200.1 33.4 198.6 33.9 197.3 34.8Z" fill="#EFF5F8"/>
<path d="M226.3 54.1C224.2 52.9 222.5 51.3 221.3 49.1C220.1 47 219.5 44.5 219.5 41.8C219.5 39.1 220.1 36.6 221.3 34.5C222.5 32.4 224.2 30.7 226.3 29.5C228.4 28.3 230.9 27.7 233.6 27.7C235.8 27.7 237.9 28.1 240 29C242.1 29.9 243.7 31.1 245.1 32.8L240.8 36.5C240 35.5 239 34.8 237.8 34.2C236.6 33.7 235.3 33.4 233.9 33.4C232.3 33.4 230.9 33.8 229.7 34.5C228.5 35.2 227.5 36.2 226.9 37.4C226.2 38.7 225.9 40.1 225.9 41.8C225.9 43.5 226.2 44.9 226.9 46.2C227.6 47.5 228.5 48.5 229.8 49.2C231 49.9 232.4 50.3 234 50.3C234.6 50.3 235.2 50.3 235.7 50.1C236.3 50 236.8 49.9 237.3 49.7C237.8 49.5 238.3 49.3 238.7 49.1C239.1 48.9 239.5 48.6 239.9 48.3C240.3 48 240.6 47.7 240.9 47.4L245.2 51.2C243.9 52.6 242.3 53.8 240.2 54.7C238.1 55.6 235.9 56 233.4 56C230.8 55.9 228.5 55.3 226.3 54.1Z" fill="#EFF5F8"/>
<path d="M251.3 15.3H257.6V55.5H251.3V15.3Z" fill="#EFF5F8"/>
<path d="M266.7 22.4C265.9 21.6 265.5 20.6 265.5 19.5C265.5 18.4 265.9 17.4 266.7 16.6C267.5 15.8 268.5 15.4 269.7 15.4C270.8 15.4 271.8 15.8 272.7 16.6C273.5 17.4 273.9 18.4 273.9 19.5C273.9 20.2 273.7 20.9 273.3 21.6C272.9 22.2 272.4 22.7 271.8 23.1C271.2 23.5 270.5 23.7 269.7 23.7C268.5 23.6 267.5 23.2 266.7 22.4ZM266.6 28.1H272.9V55.4H266.6V28.1Z" fill="#EFF5F8"/>
<path d="M299.9 28.2C301 28.5 302.1 29 303.1 29.6C304.1 30.2 304.9 30.9 305.7 31.8C306.5 32.6 307.2 33.6 307.7 34.6C308.2 35.6 308.7 36.8 309 38C309.3 39.3 309.5 40.6 309.5 41.9C309.5 43.6 309.3 45.1 308.9 46.6C308.5 48.1 307.9 49.4 307.1 50.5C306.3 51.6 305.4 52.6 304.3 53.4C303.2 54.2 302 54.8 300.6 55.3C299.2 55.7 297.8 55.9 296.3 55.9C292.6 55.9 289.7 54.6 287.7 52.1H287.6V65.1H281.3V28.1H287.6V31.4H287.7C289.8 28.9 292.7 27.7 296.4 27.7C297.6 27.7 298.8 27.9 299.9 28.2ZM301 47.9C302.5 46.4 303.2 44.4 303.2 42C303.2 39.4 302.4 37.4 300.9 35.8C299.4 34.2 297.5 33.5 295.3 33.5C293 33.5 291.1 34.3 289.6 35.9C288.1 37.5 287.4 39.5 287.4 42C287.4 44.4 288.2 46.4 289.7 48C291.2 49.5 293.1 50.3 295.4 50.3C297.6 50.2 299.5 49.4 301 47.9Z" fill="#EFF5F8"/>
<path d="M313.8 51.9L317 47.2C318.1 48.3 319.3 49.1 320.5 49.6C321.7 50.1 323.2 50.4 324.8 50.4C326 50.4 326.9 50.2 327.6 49.7C328.3 49.2 328.6 48.6 328.6 47.8C328.6 47.1 328.2 46.6 327.4 46.2C326.6 45.8 325.2 45.2 323.2 44.5C322.4 44.2 321.7 44 321 43.7C320.3 43.4 319.7 43.1 319 42.7C318.3 42.3 317.8 41.9 317.3 41.5C316.8 41 316.4 40.5 316 40C315.6 39.4 315.3 38.8 315.1 38C314.9 37.3 314.8 36.5 314.8 35.6C314.8 33.4 315.7 31.5 317.5 30.1C319.3 28.6 321.6 27.9 324.4 27.9C328 27.9 331.2 29 334.1 31.3L331 36.2C330.3 35.5 329.5 35 328.7 34.5C327.9 34.1 327.1 33.7 326.4 33.5C325.7 33.3 324.9 33.2 324.2 33.2C323.5 33.2 322.8 33.4 322.2 33.8C321.6 34.2 321.3 34.8 321.3 35.5C321.3 35.9 321.5 36.4 321.9 36.7C322.3 37.1 322.8 37.4 323.3 37.8C323.9 38.1 324.7 38.5 325.6 38.8C328.5 39.9 330.3 40.7 331 41.1C332.8 42.1 334 43.2 334.5 44.6C334.8 45.5 335 46.4 335 47.6C335 48.8 334.8 49.8 334.4 50.8C334 51.8 333.4 52.7 332.5 53.4C331.7 54.2 330.6 54.7 329.3 55.2C328 55.6 326.5 55.8 324.8 55.8C320.5 55.9 316.8 54.5 313.8 51.9Z" fill="#EFF5F8"/>
</g>
<defs>
<clipPath id="clip0_0_1">
<rect width="335" height="69.1" fill="white" transform="translate(0 1)"/>
</clipPath>
</defs>
</svg>
